# xmcd
#
# Track frame offsets: 
#        150
#        15130
#        32546
#        61982
#        77851
#        106709
#
# Disc length: 4440 seconds
#
# Revision: 0
# Processed by: cddbd v1.5.2PL0 Copyright (c) Steve Scherf et al.
# Submitted via: ExactAudioCopy v0.95b4
#
DISCID=34115606
DTITLE=Miguel K. y Paulino - Haciendo el Amor
DYEAR=1900
DGENRE=
TTITLE0=latino radio edit
TTITLE1=latino 78 Rpm
TTITLE2=Latino Club Mix
TTITLE3=Original Radio
TTITLE4=Big Beat Les Lilas Mix
TTITLE5=Video 
EXTD=
EXTT0=
EXTT1=
EXTT2=
EXTT3=
EXTT4=
EXTT5=
PLAYORDER=
